# xmcd
#
# Track frame offsets:
#	150
#	11247
#	31991
#	45656
#	53729
#	69009
#	82978
#	97781
#	113396
#	119972
#	133096
#	147666
#	162982
#	178168
#
# Disc length: 2486 seconds
#
# Revision: 1
# Processed by: cddbd v1.5.1PL0 Copyright (c) Steve Scherf et al.
# Submitted via: audiograbber 1.81.02
#
DISCID=bb09b40e
DTITLE=Daniel Kallauch - Gott hat alles gut gemacht (www.gerth.de)
DYEAR=2005
DGENRE=Chorus
TTITLE0=Das hast du toll gemacht
TTITLE1=Schön, dass es dich gibt (Du bist und bleibst einmalig)
TTITLE2=Ein schöner Tag
TTITLE3=Sommer und Winter
TTITLE4=Alles, aber wirklich auch alles
TTITLE5=Hab keine Angst
TTITLE6=Hier bewegt sich was
TTITLE7=Die Bibel ist ein Schatz
TTITLE8=Wir haben einen Grund zu feiern
TTITLE9=Ich schmeiß die Arme in die Luft
TTITLE10=Es ist einfach nicht wahr
TTITLE11=Jetzt geht's los
TTITLE12=Auf Händen getragen
TTITLE13=Komm zur Ruh
EXTD=
EXTT0=
EXTT1=
EXTT2=
EXTT3=
EXTT4=
EXTT5=
EXTT6=
EXTT7=
EXTT8=
EXTT9=
EXTT10=
EXTT11=
EXTT12=
EXTT13=
PLAYORDER=
